<svg width="17" height="17" viewBox="0 0 17 17" fill="none" xmlns="http://www.w3.org/2000/svg">
<path fill-rule="evenodd" clip-rule="evenodd" d="M16.9999 0H0C0 0 0.000122177 0.377778 0.000122177 0.85V17H16.9999L17 0.85C17 0.377778 16.9999 0 16.9999 0ZM5.66675 3.77778H3.77787V5.66667H5.66675V3.77778ZM13.2222 3.77778H7.55562V5.66667H13.2222V3.77778ZM13.2222 7.55556H7.55562V9.44444H13.2222V7.55556ZM7.55562 11.3333H13.2222V13.2222H7.55562V11.3333ZM3.77787 7.55556H5.66675V9.44444H3.77787V7.55556ZM5.66675 11.3333H3.77787V13.2222H5.66675V11.3333ZM1.889 15.1111H15.1111V1.88889H1.889V15.1111Z" fill="#1A73E8"/>
</svg>
