<svg width="767" height="442" viewBox="0 0 767 442" fill="none" xmlns="http://www.w3.org/2000/svg">
<path fill-rule="evenodd" clip-rule="evenodd" d="M226.597 95.981C214.859 95.1659 191.384 92.2592 191.384 92.2592L184.365 162.459C184.365 162.459 210.44 164.984 223.478 165.928C242.772 167.324 281.361 169.479 281.361 169.479L283.275 98.6409C283.275 98.6409 245.49 97.2931 226.597 95.981Z" fill="#F0F1F5" stroke="#1A73E8" stroke-width="0.75" stroke-linecap="round" stroke-linejoin="round"/>
<path fill-rule="evenodd" clip-rule="evenodd" d="M437.703 65.456L437.065 67.3705H435.789L436.427 73.7523V77.5814L431.322 80.7723L430.684 82.6868L429.408 84.6013V86.5159L431.322 87.154L432.598 89.0686L431.96 91.6213L431.322 93.5358L431.96 94.8122L431.322 95.4504L431.96 96.7267L431.322 100.556L434.513 103.108H437.065L438.98 105.023L441.532 105.661L444.085 108.214L445.999 110.767L447.913 112.043H450.466L453.018 114.596L453.657 116.51V121.616H454.295L454.933 123.53L456.847 124.807L455.571 126.721L456.209 131.188L458.124 135.017H461.952L463.229 138.208L501.517 134.379L500.878 131.826L501.517 130.55V128.636L500.24 127.997L499.602 125.445L498.964 121.616V119.063L499.602 117.148V115.234L500.878 112.681L499.602 111.405L500.24 107.576L500.878 105.661L502.793 104.385L501.517 102.47V98.6412L503.431 95.4504L502.793 93.5358L504.707 91.6213L505.345 88.4304L505.983 85.8777L507.26 83.9632H505.983L505.345 85.8777L504.069 87.7922H503.431V89.7068L502.155 90.9831L502.793 92.2595L502.155 92.8976H501.517L499.602 93.5358L498.326 96.0885L497.05 97.3649L495.773 99.2794L494.497 98.6412V96.7267L495.773 93.5358L497.05 91.6213L498.964 90.3449V89.0686L497.05 87.7922L498.326 83.9632H497.688L495.773 84.6013H495.135L496.411 82.0486L495.135 78.8577L493.221 77.5814H491.306V75.6669L489.392 75.0287L484.925 74.3905L482.373 75.0287L479.82 73.7523L471.524 71.8378L464.505 70.5614L462.59 68.0087L460.676 67.3705L456.209 66.0942L453.657 67.3705V66.0942L454.933 61.6269L453.657 60.9888L450.466 62.9033L448.552 63.5415L444.085 66.0942L440.256 66.7324L437.703 65.456Z" fill="#F0F1F5" stroke="#1A73E8" stroke-width="0.75" stroke-linecap="round" stroke-linejoin="round"/>
<path fill-rule="evenodd" clip-rule="evenodd" d="M594.045 210.322V210.961H594.683V212.237H595.321V213.513H595.96L596.598 214.79H598.512L599.15 215.428L601.065 216.066L602.979 214.151L603.617 212.875L606.17 214.151L607.446 212.875H609.998L610.637 211.599L609.998 210.322L611.275 209.684L612.551 210.322L615.104 208.408L615.742 209.046L618.294 207.131L617.656 206.493L618.932 205.217V204.579H617.656V203.302L618.294 201.388L620.847 197.559L621.485 195.006L620.847 194.368L622.761 192.453L622.123 191.815L623.399 189.901V187.348L624.037 186.71H625.314L626.59 187.986H629.142L630.419 186.71V184.795L631.057 184.157V182.243L631.695 180.966L632.333 180.328L634.248 180.966L634.886 178.413H636.162V177.775L637.438 176.499V175.223L638.714 173.308V171.394L639.353 170.117L638.714 168.841L639.353 168.203L647.01 172.032L647.648 168.203V166.926L646.372 166.288L645.734 165.012H645.096L645.734 163.735L643.181 164.374L640.629 163.097L639.991 163.735L639.353 165.012H637.438L636.8 166.926L635.524 167.564H633.609L632.333 165.65V167.564L630.419 169.479H628.504L627.866 170.755L626.59 172.67L624.037 175.223L622.123 166.288L608.084 168.841L604.893 152.886L602.979 154.163L604.893 155.439L604.255 157.354L604.893 159.268L604.255 161.821V165.012L603.617 168.841V171.394L600.426 173.308V175.223L597.874 177.775L596.598 176.499L594.683 177.775V179.052L593.407 179.69L592.769 182.243L592.131 183.519L592.769 184.157V185.433L591.493 186.71H590.854V185.433L589.578 184.795L588.302 186.072L587.664 187.986V189.262L588.302 192.453L587.026 193.092V195.006L583.197 196.921L583.835 198.835L583.197 201.388L585.749 203.941L586.388 205.217L588.94 208.408L592.131 210.322H594.045Z" fill="#F0F1F5" stroke="#1A73E8" stroke-width="0.75" stroke-linecap="round" stroke-linejoin="round"/>
<path fill-rule="evenodd" clip-rule="evenodd" d="M659.136 175.222L660.412 173.946L658.498 172.031L657.86 173.308L658.498 173.946L659.136 175.222Z" fill="#F0F1F5" stroke="#1A73E8" stroke-width="0.75" stroke-linecap="round" stroke-linejoin="round"/>
<path fill-rule="evenodd" clip-rule="evenodd" d="M117.361 65.4558V63.5413L117.999 62.9031V61.6267L116.723 59.074L123.742 15.0398C123.742 15.0398 87.5914 8.77593 69.5159 5.32491C64.1932 4.30869 53.5478 1.63806 53.5478 1.63806L52.9097 2.91442L53.5478 6.1053H55.4622V8.65801L54.8241 11.2107H53.5478L52.9097 9.93437L52.2715 8.65801L50.3571 6.1053L49.0809 6.74348L50.3571 7.38166L51.6334 8.65801L50.3571 9.29619L48.4427 8.01984L46.5283 7.38166L47.1665 9.29619L50.3571 10.5725L51.6334 9.29619L52.9097 11.2107L50.9953 13.7634L51.6334 15.678L52.9097 19.507L54.1859 20.1452L53.5478 18.2307L52.2715 15.0398L52.9097 13.1253H54.1859L55.4622 13.7634V16.3161V18.2307L56.7385 18.8689L55.4622 20.7834L53.5478 22.6979V24.6125V26.527L52.9097 29.7179L51.6334 31.6324L50.3571 30.9942L48.4427 32.9088L47.8046 33.5469L45.8902 32.9088L44.614 33.5469L42.6996 32.9088L43.9758 30.9942L45.8902 29.0797L47.1665 29.7179L48.4427 28.4415L49.719 30.3561L50.3571 26.527L49.0809 25.8888L49.719 23.3361C49.0437 23.3361 51.6334 23.3361 51.6334 23.3361L52.2715 21.4216L47.8046 23.9743L46.5283 24.6125L43.9758 26.527L45.2521 27.8033H46.5283L45.2521 28.4415H42.0614L42.6996 27.1652L45.2521 24.6125L47.1665 22.6979V20.7834H48.4427V22.0597L50.3571 20.1452L49.0809 16.3161V18.2307L47.1665 16.3161L46.5283 16.9543L44.614 15.0398H42.6996L35.6801 12.4871L33.1276 11.2107L31.8513 9.93437L27.3844 7.38166L26.1081 10.5725V14.4016L28.0225 16.9543L28.6606 19.507L28.0225 24.6125L29.2988 26.527L28.6606 30.3561H30.575V31.6324L33.1276 32.9088L29.9369 33.5469L29.2988 34.8233L28.6606 34.1851V36.0996H31.2132L32.4894 38.0142H30.575L29.9369 40.5669L30.575 42.4814H28.6606L28.0225 41.2051L27.3844 43.7578H28.6606L29.9369 44.396H32.4894L33.1276 45.0341H35.042L35.6801 46.9487L36.9564 47.5868H38.8708L40.7852 49.5014L42.0614 52.6923L41.4233 57.1595V58.4359L45.8902 59.7122L47.8046 60.9886L52.2715 59.7122L54.1859 59.074L58.0147 59.7122L61.2054 60.9886L61.8435 62.9031L64.3961 62.2649L65.0342 62.9031L69.5011 62.2649L72.6918 62.9031L75.8824 62.2649L81.6256 61.6267L83.54 60.9886L89.2832 62.2649L91.1976 60.9886L117.361 65.4558Z" fill="#F0F1F5" stroke="#1A73E8" stroke-width="0.75" stroke-linecap="round" stroke-linejoin="round"/>
<path fill-rule="evenodd" clip-rule="evenodd" d="M684.023 57.7977L706.996 51.4159L707.634 52.0541L708.272 53.3304L706.996 55.8831L708.91 58.4358L708.272 59.074V60.3504L706.357 63.5413L705.719 64.1794H704.443L703.805 65.4558L704.443 67.3703V69.2849V71.8376L703.805 72.4758V75.0285L703.167 76.3048V78.2193L702.529 78.8575L703.167 82.6866L703.805 83.3248L703.167 85.8775L703.805 87.1538V89.0684L703.167 89.7065V91.6211L705.719 93.5356L694.871 95.4501L694.233 94.812L691.68 83.3248V82.0484L690.404 80.7721L689.128 82.0484V78.2193L688.49 77.5812V76.943L687.852 76.3048L687.213 74.3903H686.575V71.1994L687.213 69.923L685.937 68.0085L685.299 65.4558L684.661 64.1794V60.9886L684.023 60.3504V57.7977Z" fill="#F0F1F5" stroke="#1A73E8" stroke-width="0.75" stroke-linecap="round" stroke-linejoin="round"/>
<path fill-rule="evenodd" clip-rule="evenodd" d="M681.47 212.237V210.96H682.108V207.769L680.832 205.855H676.365L677.003 207.769L675.089 207.131L673.813 208.407V206.493L670.622 205.217V203.302H668.707H666.793L665.517 202.026L661.05 202.664V201.388L666.155 200.749L666.793 202.026L667.431 200.111L668.069 202.026H670.622H671.26V203.302L675.089 205.217L676.365 203.94L675.089 203.302V202.026L673.813 201.388H671.898L667.431 197.558V196.282L671.898 200.111H673.813L672.536 198.835L673.174 196.92L675.727 198.835L675.089 196.92L673.174 195.644L670.622 195.006L669.346 193.091L667.431 192.453L664.879 190.538L662.964 187.986H661.688L659.774 187.348L660.412 186.709H662.964L667.431 191.177H668.707L671.26 193.729V192.453L673.174 193.729V191.177L672.536 189.9L673.813 189.262L671.898 188.624L669.346 187.986L668.707 186.709L666.793 186.071L665.517 186.709L662.964 186.071L661.05 184.157V182.88L659.136 184.795H656.583V183.519V182.88V179.051L657.859 177.775L659.136 177.137V175.222L658.497 173.946L657.859 173.308H655.945L655.307 172.031H652.754L651.478 170.755L652.116 168.84L650.202 168.202H647.649L647.011 172.031L639.353 168.202L638.715 168.84L639.353 170.117L638.715 171.393V173.308L637.439 175.222V176.499L636.163 177.775V178.413H634.886L634.248 180.966L632.334 180.328L631.696 180.966L631.058 182.242V184.157L630.42 184.795V186.709L629.143 187.986H626.591L625.314 186.709H624.038L623.4 187.348V189.9L622.124 191.815L622.762 192.453L620.848 194.368L621.486 195.006L620.848 197.558L618.295 201.388L617.657 203.302V204.578H618.933V205.217L617.657 206.493L618.295 207.131L615.742 209.046L615.104 208.407L612.552 210.322L611.276 209.684L609.999 210.322L610.637 211.598L609.999 212.875H607.447L606.171 214.151L603.618 212.875L602.98 214.151L601.065 216.066L599.151 215.427L598.513 214.789H596.599L595.96 213.513H595.322V212.237H594.684V210.96H594.046L589.579 216.704L585.112 219.256V221.171L583.836 222.447V223.724L580.645 225L580.007 226.915L572.988 230.744L601.065 226.276V226.915L681.47 212.237ZM682.108 185.433V186.709L681.47 187.348L682.108 188.624L680.832 190.538L680.194 192.453V195.006L679.556 197.558L680.194 200.111L680.832 200.749L681.47 198.835V195.006L682.108 193.091L684.023 193.729V189.9L685.299 187.348L684.661 186.071V184.157L682.108 185.433Z" fill="#F0F1F5" stroke="#1A73E8" stroke-width="0.75" stroke-linecap="round" stroke-linejoin="round"/>
<path fill-rule="evenodd" clip-rule="evenodd" d="M145.439 140.122L134.591 228.191C134.591 228.191 154.084 230.918 163.831 231.962C177.908 233.471 206.062 235.849 206.062 235.849L211.805 165.011L184.365 162.459L186.279 145.228L145.439 140.122Z" fill="#F0F1F5" stroke="#1A73E8" stroke-width="0.75" stroke-linecap="round" stroke-linejoin="round"/>
<path fill-rule="evenodd" clip-rule="evenodd" d="M292.209 249.889L336.241 250.527V284.989H338.155L341.984 288.818L343.898 288.18H345.174L345.812 286.903L348.365 289.456V291.371H351.556L355.384 292.647L357.299 292.009L359.213 293.923L361.128 292.647H364.956V294.562L366.871 295.2L368.147 297.752L371.976 294.562L372.614 296.476H373.89L375.805 297.752L378.357 296.476L379.634 299.667L382.186 295.2L385.377 297.114L387.291 296.476L388.567 297.752L392.396 299.029H393.672L394.311 297.114L397.501 296.476H398.777L402.606 295.2L405.159 295.838L407.711 294.562L411.54 295.838L413.455 297.752L415.369 299.029L419.198 299.667L421.75 300.943L422.388 300.305H425.579L426.217 300.943V310.516H426.855L427.493 329.023L429.408 330.938L431.322 333.49V336.043L432.599 337.319V337.958L433.875 339.234V341.149L435.151 342.425L435.789 343.063V344.978L436.427 345.616L435.789 346.254V350.083L435.151 351.998L433.875 354.55V356.465L433.237 357.741L434.513 360.294L433.875 362.847L432.599 364.123L431.322 366.676L430.684 367.952L431.96 369.867H429.408L423.665 373.057H421.112L417.921 373.696L419.198 371.781L419.836 369.867L418.56 369.228L417.283 369.867L416.007 371.143L413.455 370.505L414.093 373.057L415.369 374.972L416.645 376.248L416.007 377.525L413.455 380.077L412.178 379.439L412.816 382.63L408.988 385.821L405.159 388.374L400.692 389.012L400.054 390.288H396.863V389.012L394.949 390.288L393.672 389.012L392.396 387.736L393.034 390.926L391.12 390.288L389.844 389.012L389.206 389.65L390.482 392.203L391.758 392.841L390.482 394.117L393.034 393.479V394.755L389.844 396.67L387.291 393.479L386.653 395.394V398.585L386.015 399.861L385.377 397.308L381.548 399.861L380.91 401.137L382.186 402.414L384.1 401.137L381.548 404.966L376.443 404.328L375.805 405.604L377.719 406.243L380.272 408.157L377.719 414.539L376.443 413.263L374.528 414.539L371.976 411.986L372.614 414.539L371.976 415.177L372.614 415.815L375.805 416.453L377.081 415.815L376.443 420.283L375.805 420.921V424.75H377.081L377.719 428.579L377.081 429.855L378.995 433.046L380.272 436.237L381.548 436.875L380.91 439.428L379.634 440.704L377.081 440.066L374.528 437.513H365.595L362.404 434.961L358.575 434.322L356.023 431.77H351.556V429.855L350.279 429.217L349.003 424.112L347.089 421.559L345.812 420.283V417.092L344.536 415.177L345.174 413.901V411.986L344.536 410.072L341.984 408.795L338.793 406.243L338.155 404.328L335.602 400.499L333.688 399.223L332.412 397.308L331.135 392.841L329.221 390.288L328.583 388.374L326.669 385.821V382.63L324.754 381.354V380.077L320.287 377.525V376.248L317.735 375.61V373.696H316.458L314.544 370.505H310.077L306.248 369.867H303.058L300.505 368.59L299.229 370.505L294.762 371.143L292.209 374.972L291.571 378.163L290.295 380.077L287.104 383.268V384.545L283.275 383.268L281.361 381.354H278.809L276.894 378.801L273.703 378.163L269.875 374.334L267.96 373.696L266.046 371.781L265.408 369.228L264.132 366.676L263.493 364.761L264.132 362.847L261.579 358.379V356.465L259.665 353.274L256.474 350.721L253.921 350.083L250.731 346.254V344.978L248.178 343.063L245.626 340.51L243.711 339.234L241.797 337.958L239.882 336.043V333.49L238.606 332.852L237.33 332.214L235.416 330.3V328.385L289.657 330.938L292.209 249.889Z" fill="#F0F1F5" stroke="#1A73E8" stroke-width="0.75" stroke-linecap="round" stroke-linejoin="round"/>
<path fill-rule="evenodd" clip-rule="evenodd" d="M479.82 270.949L567.244 260.739V256.271L567.882 255.633L570.435 256.271L571.073 252.442L574.902 249.251H578.092L582.559 244.146H585.112L585.75 240.955H587.026L587.664 239.041L589.579 238.402L590.217 239.679H591.493L592.769 236.488L595.96 235.85L597.236 236.488L599.151 232.021L600.427 230.744H601.065V226.277L572.987 230.744L571.711 232.021L513.003 237.764H509.174L509.812 239.679V240.955L490.03 242.87L489.392 243.508L488.116 242.231V243.508L488.754 246.06H487.478L488.116 247.975H486.839L488.116 249.89L486.839 250.528L486.201 252.442L487.478 253.08L488.116 253.719H486.201V254.995L486.839 255.633L483.649 257.548L484.287 260.1V261.377H483.011L482.373 263.929L481.734 265.844L483.011 268.397H481.096L479.82 270.949Z" fill="#F0F1F5" stroke="#1A73E8" stroke-width="0.75" stroke-linecap="round" stroke-linejoin="round"/>
<path fill-rule="evenodd" clip-rule="evenodd" d="M589.578 256.271L585.112 258.186L583.835 260.1L581.921 263.929L585.112 265.206L585.75 265.844L587.664 267.12L590.217 266.482V268.397L592.131 269.673L592.769 271.587L593.407 272.226L595.322 273.502L595.96 275.417H597.236L597.874 276.693L601.065 277.969L602.979 281.16H604.894L606.808 283.075V284.351L608.722 284.989V286.266L609.999 286.904V288.18H611.913L615.104 290.095V291.371L616.38 293.285L617.018 295.838L617.656 297.115H619.571L620.209 298.391L622.123 300.944V303.496L623.4 305.411L624.038 304.773H625.314H626.59L627.228 302.858V300.944L628.505 302.22L626.59 299.029L625.314 296.476L625.952 295.838L627.866 299.029L629.143 299.667L628.505 297.115L629.781 298.391L630.419 300.305L631.695 299.029L631.057 297.115L629.781 296.476L628.505 295.838L631.057 295.2L632.972 295.838L634.248 294.562V293.285H636.162L638.077 292.009L639.353 290.733L638.077 289.456V288.18H639.353L639.991 289.456L641.267 288.18L642.543 286.904V284.351L643.82 283.713L645.096 284.351L646.372 282.436L645.734 281.16L648.287 279.884L646.372 279.246V277.331L647.649 275.417V278.607L649.563 272.864L651.477 269.673L654.668 266.482L636.162 253.08L619.571 255.633L618.933 253.08L616.38 251.166L615.104 252.442L614.466 250.528L595.322 253.08L592.769 254.357L590.855 254.995L590.217 256.271H589.578Z" fill="#F0F1F5" stroke="#1A73E8" stroke-width="0.75" stroke-linecap="round" stroke-linejoin="round"/>
<path fill-rule="evenodd" clip-rule="evenodd" d="M311.518 134.873C301.891 134.708 282.637 133.741 282.637 133.741L283.276 98.6413H283.914L284.552 82.6869C284.552 82.6869 320.103 83.3251 338.155 83.3251C352.435 83.3251 381.548 82.6869 381.548 82.6869L380.91 84.6014L379.634 86.516L377.719 87.7923L379.634 91.6214L382.186 92.2596L383.462 94.1741L384.1 125.445H382.186V126.721L383.462 127.997L382.824 129.912L384.1 131.188L383.462 136.294L382.186 138.208L384.1 142.676H382.824L381.548 140.761V139.485H379.634L378.995 138.847L377.081 138.208H375.167L373.252 136.294L370.062 136.932H365.595L364.318 138.208H362.404L357.299 135.017C357.299 135.017 326.778 135.134 311.518 134.873Z" fill="#F0F1F5" stroke="#1A73E8" stroke-width="0.75" stroke-linecap="round" stroke-linejoin="round"/>
<path fill-rule="evenodd" clip-rule="evenodd" d="M717.205 103.746L719.758 112.681V115.234L721.034 114.595L722.31 113.319H724.225V112.043V110.766L723.587 109.49L724.225 108.214H722.948L723.587 106.937L722.948 105.661L723.587 105.023V103.746H722.948L722.31 101.832L717.205 103.746Z" fill="#F0F1F5" stroke="#1A73E8" stroke-width="0.75" stroke-linecap="round" stroke-linejoin="round"/>
<path fill-rule="evenodd" clip-rule="evenodd" d="M601.066 129.274L604.895 152.886L608.085 168.841L673.175 156.077L673.813 154.163L675.089 152.886H678.28L678.918 151.61L680.832 150.334V149.057L685.299 145.228V143.952L681.471 141.399H680.194L679.556 138.846L677.642 139.485L677.004 136.932L677.642 135.017L678.28 133.741L677.004 132.465V131.188L678.28 129.912L679.556 127.359V126.083L681.471 124.168L680.194 122.892H678.28H676.366L675.089 120.977V119.701V117.786L673.175 116.51L671.899 117.148L671.26 115.872L669.346 115.234L611.276 127.359L610.638 122.892L601.066 129.274Z" fill="#F0F1F5" stroke="#1A73E8" stroke-width="0.75" stroke-linecap="round" stroke-linejoin="round"/>
<path fill-rule="evenodd" clip-rule="evenodd" d="M105.237 134.379L110.342 102.47L111.618 99.9173V98.0028L112.894 96.7265L111.618 95.4501L109.066 94.8119L109.704 90.9829L112.894 87.1538L115.447 84.6011L116.085 82.6865L118.638 78.8575L119.276 77.5811L122.466 73.7521L121.828 70.5612L118 67.3703V65.4557L91.1979 60.9885L89.2835 62.2649L83.5404 60.9885L81.626 61.6267L75.8828 62.2649L72.6921 62.903L69.5014 62.2649L65.0345 62.903L64.3964 62.2649L61.8438 62.903L61.2057 60.9885L58.0151 59.7121L54.1863 59.074L47.8049 60.9885L45.8905 59.7121L41.4236 58.4358V57.1594L42.0617 52.6922L40.7855 49.5013L38.8711 47.5868L36.9567 48.225H35.0423L34.4042 46.3104L31.8516 46.9486L30.5754 46.3104L29.9372 47.5868L28.0228 45.6722V48.8631L26.7466 50.1395V52.6922L27.3847 53.9686L26.1084 55.2449L26.7466 57.7976H25.4703L21.6415 68.6466L21.0034 70.5612L21.6415 71.8375L21.0034 73.1139L20.3652 74.3902V75.6666L19.089 76.9429L17.8127 82.6865L16.5364 85.8774L17.1746 87.1538L15.8983 87.792L13.9839 90.9829H15.2602V92.8974L13.9839 92.2592L12.7076 94.1737L12.0695 92.8974L10.1551 97.3646L8.24072 101.194L8.87885 103.746L8.24072 107.575L7.60258 111.405V113.957L8.87885 116.51L65.0345 127.997L105.237 134.379Z" fill="#F0F1F5" stroke="#1A73E8" stroke-width="0.75" stroke-linecap="round" stroke-linejoin="round"/>
<path fill-rule="evenodd" clip-rule="evenodd" d="M293.486 240.317C293.486 240.317 332.815 241.385 352.48 241.281C373.018 241.172 414.093 239.678 414.093 239.678L414.731 249.251L417.922 267.758L419.198 299.667L415.369 299.029L413.455 297.752L411.54 295.838L409.626 295.2L407.711 294.562L405.159 295.838L402.606 295.2L398.778 296.476H397.501L394.311 297.114L393.673 299.029H392.396L390.482 298.391L388.567 297.752L387.291 296.476L385.377 297.114L382.186 295.2L379.634 299.667L378.357 296.476L375.805 297.752L373.89 296.476H372.614L371.976 294.562L368.147 297.752L366.871 295.2L364.957 294.562V292.647H361.128L359.213 293.923L357.299 292.009L355.385 292.647L351.556 291.371H348.365V289.456L345.813 286.903L345.174 288.18H343.898L341.984 288.818L340.069 286.903L338.155 284.989H336.241V250.527L293.486 249.889V240.317Z" fill="#F0F1F5" stroke="#1A73E8" stroke-width="0.75" stroke-linecap="round" stroke-linejoin="round"/>
<path fill-rule="evenodd" clip-rule="evenodd" d="M544.271 143.314L550.014 189.262L551.291 187.986L553.205 189.262L554.481 187.986L555.758 189.262H557.034L558.948 193.091L560.863 193.73L564.053 193.091L565.968 195.006L567.244 195.644L568.52 193.73H571.073L572.349 195.006L572.987 194.368H574.902L575.54 193.091L578.092 191.177L579.369 194.368L581.921 195.006L583.197 196.921L584.474 196.282L587.026 195.006V193.091L588.302 192.453L587.664 189.262V187.986L588.302 186.071L589.579 184.795L590.855 185.433V186.71H591.493L592.769 185.433V184.157L592.131 183.519L592.769 182.242L593.408 179.69L594.684 179.052V177.775L596.598 176.499L597.874 177.775L600.427 175.222V173.308L603.618 171.393V168.841L604.256 165.012V161.821L604.894 159.268L604.256 157.353L604.894 155.439L602.979 154.163L604.894 152.886L601.065 129.274L590.855 135.655L586.388 140.761L584.474 141.399H581.921L579.369 142.675L577.454 143.314L576.816 144.59L572.987 143.952H571.711L570.435 144.59L568.52 143.952L572.349 142.037H571.073L569.797 142.675L566.606 141.399L563.415 140.761L562.139 140.123L544.271 143.314Z" fill="#F0F1F5" stroke="#1A73E8" stroke-width="0.75" stroke-linecap="round" stroke-linejoin="round"/>
<path fill-rule="evenodd" clip-rule="evenodd" d="M333.688 83.3246C317.212 83.3246 284.551 82.6864 284.551 82.6864L285.828 30.3558C285.828 30.3558 309.863 31.1734 321.881 31.2631C338.367 31.3861 371.337 30.994 371.337 30.994L373.252 36.0994L372.614 38.014V45.0339L376.443 53.9684L377.081 57.1593V62.2647L377.719 65.4556V66.7319L378.357 71.1992L378.995 73.7519L380.909 76.3046L381.548 82.6864C381.548 82.6864 349.544 83.3246 333.688 83.3246Z" fill="#F0F1F5" stroke="#1A73E8" stroke-width="0.75" stroke-linecap="round" stroke-linejoin="round"/>
<path fill-rule="evenodd" clip-rule="evenodd" d="M601.065 226.915L681.47 212.237L684.023 214.789L686.575 218.618L683.385 216.066L684.023 217.98L680.832 216.066L679.556 216.704L682.746 218.618L681.47 219.257L678.918 218.618L680.832 220.533L677.003 218.618V219.895L678.918 221.171L677.003 222.447H674.451L673.813 219.895V217.342H672.536V221.171L673.813 223.086V225L677.003 224.362L678.28 223.086L679.556 224.362L681.47 223.724L682.746 221.809L684.023 223.724L683.385 225.638L684.661 226.276L683.385 227.553H685.299L685.937 225L685.299 223.086H687.213L687.851 221.809L689.128 224.362V226.276V228.191L687.851 227.553L687.213 228.191L685.937 232.02L684.661 233.296H682.108L680.832 232.02L679.556 233.296L678.918 232.02L680.194 230.744L676.365 231.382L677.641 233.296H673.813L671.26 232.658L672.536 234.573L676.365 235.211H680.194V236.487L677.641 237.764L679.556 238.402L677.641 240.955H675.727L671.898 239.04L674.451 242.231L677.003 242.869H678.28L679.556 240.955L680.832 242.231L684.023 240.316L681.47 245.422L679.556 244.145L677.641 245.422L674.451 247.336L672.536 246.06V247.975L670.622 250.527L669.984 247.975H668.708L669.346 249.251L668.708 249.889L669.984 251.165L667.431 253.08L665.517 256.271L664.241 259.462V261.376L662.964 258.824V264.567H658.497H657.859L656.583 265.843L654.669 266.482L636.163 253.08L619.571 255.633L618.933 253.08L616.381 251.165L615.104 252.442L614.466 250.527L595.322 253.08L590.855 254.994L590.217 256.271H589.579L585.112 258.185L567.244 260.738V256.271L567.883 255.633L570.435 256.271L571.073 252.442L574.902 249.251H578.093L582.56 244.145H585.112L585.75 240.955H587.027L587.665 239.04L589.579 238.402L590.217 239.678H591.493L592.77 236.487L595.96 235.849L597.237 236.487L599.151 232.02L600.427 230.744H601.065V226.915Z" fill="#F0F1F5" stroke="#1A73E8" stroke-width="0.75" stroke-linecap="round" stroke-linejoin="round"/>
<path fill-rule="evenodd" clip-rule="evenodd" d="M105.721 134.723C118.96 136.736 145.439 140.123 145.439 140.123L132.676 241.593L132.038 242.869L130.762 245.422H128.847L128.209 242.869L126.933 243.507L125.018 242.231L122.466 243.507L121.828 246.06L122.466 247.975L121.828 249.251L122.466 252.442L121.828 254.356L122.466 257.547V260.1L121.19 260.738V263.291L55.4619 179.69L65.0339 127.997C65.0339 127.997 92.3716 132.694 105.721 134.723Z" fill="#F0F1F5" stroke="#1A73E8" stroke-width="0.75" stroke-linecap="round" stroke-linejoin="round"/>
<path fill-rule="evenodd" clip-rule="evenodd" d="M610.638 122.892L611.276 127.359L669.346 115.234L671.26 115.872L671.898 117.148L673.175 116.51L675.089 117.786V120.977L676.365 122.892H680.194L681.47 124.168L692.957 127.997V127.359L692.319 125.444L691.042 124.168V122.254H691.681L692.319 123.53L692.957 124.806L693.595 125.444L694.233 130.55L696.147 128.635L696.786 127.359L695.509 125.444L698.062 122.254L696.786 120.977L694.871 108.214H694.233L694.871 95.4501L694.233 94.8119L691.681 83.3247V82.0484L690.404 80.772L689.766 81.4102L689.128 82.0484V80.772V78.2193L688.49 77.5811V76.9429L687.852 76.3048L687.214 74.3902H686.575V71.1993L687.214 69.923L685.937 68.0084L685.299 65.4557L684.661 64.1794V62.2649V60.9885L684.023 60.3503V57.7976L666.155 62.2649H664.241L661.05 64.8176L659.774 66.7321L655.945 71.8375L655.307 73.1139V75.0284L653.393 76.9429L648.926 81.4102L649.564 82.0484H651.478H652.754L653.393 82.6865L652.754 83.9629L651.478 85.8774H650.84L652.116 87.1538V88.4301L653.393 89.0683L652.754 89.7065V90.9828L651.478 91.621H650.202L647.649 94.8119L647.011 96.0883L644.459 97.3646L643.821 98.0028H641.906H639.992L638.716 98.641L636.163 99.9173H634.887L633.61 98.641L627.867 99.2792L626.591 99.9173H624.038L616.381 103.108L617.019 104.385V105.661V106.299H619.572V107.575L618.933 108.852L620.21 110.128V111.405L618.933 113.319L617.657 115.872L615.105 117.786L613.828 119.701L610.638 122.892ZM692.319 134.379L691.681 135.017L691.042 136.932L692.319 136.293L692.957 135.017L692.319 134.379ZM693.595 133.741V134.379L694.233 135.017L694.871 134.379L695.509 133.741L696.147 133.103L697.424 133.741L698.062 133.103L703.167 130.55H705.081V129.273H706.358L708.91 127.359L712.101 126.721L712.739 125.444L712.101 124.806L711.463 125.444L710.824 124.806L713.377 121.615L712.739 120.977L710.186 124.168L709.548 124.806L706.358 125.444H705.081L704.443 126.083H703.805V126.721L701.252 127.359L700.614 127.997L699.338 127.359V128.635L698.7 127.997L698.062 128.635V129.912L696.786 130.55L696.147 131.188H694.871L694.233 131.826L693.595 133.741ZM713.377 124.168V124.806H714.015L715.93 123.53L716.568 122.254H717.844L719.758 120.339L717.206 121.615H716.568H715.93L714.653 122.254L714.015 122.892L713.377 124.168Z" fill="#F0F1F5" stroke="#1A73E8" stroke-width="0.75" stroke-linecap="round" stroke-linejoin="round"/>
<path fill-rule="evenodd" clip-rule="evenodd" d="M206.062 235.85C206.062 235.85 229.19 237.839 240.755 238.514C258.332 239.54 293.486 240.955 293.486 240.955V249.89H292.21L289.657 330.938L235.416 328.385V330.3L237.33 332.215L211.167 330.3L210.529 338.596L197.766 337.32L206.062 235.85Z" fill="#F0F1F5" stroke="#1A73E8" stroke-width="0.75" stroke-linecap="round" stroke-linejoin="round"/>
<path fill-rule="evenodd" clip-rule="evenodd" d="M681.47 124.169L692.956 127.998L693.595 128.636L692.956 131.189V133.103L691.68 133.741L691.042 135.018L690.404 136.932L691.042 138.208L693.595 138.847H694.871L695.509 142.038L694.871 145.228V147.143V149.058L694.233 149.696L694.871 150.972L694.233 153.525L693.595 154.163H692.318L693.595 156.077H692.318V157.354L692.956 157.992H691.68L691.042 159.268L689.766 159.907L691.042 160.545L689.766 163.097V163.736L689.128 164.374V165.65L687.851 166.926V165.65V162.459H686.575H685.299L684.023 163.097L683.384 161.821H681.47L680.832 160.545H679.556L677.641 159.268V157.354L677.003 156.716L677.641 154.801V153.525H678.279L679.556 151.61L680.832 150.334V149.058L685.299 145.228V143.952L681.47 141.399H680.194L679.556 138.847L677.641 139.485L677.003 136.932L677.641 135.018L678.279 133.741L677.003 132.465V131.189L678.279 129.912L679.556 127.359V126.083L681.47 124.169Z" fill="#F0F1F5" stroke="#1A73E8" stroke-width="0.75" stroke-linecap="round" stroke-linejoin="round"/>
<path fill-rule="evenodd" clip-rule="evenodd" d="M705.719 93.5356L719.12 90.3447L721.035 89.7065L722.311 87.1538H722.949L723.587 85.8774L724.863 85.2392H726.14V83.3247L726.778 82.0484L724.225 80.772V78.8575L721.673 77.5811V75.6666L720.397 72.4757L711.463 45.6722L710.825 46.9486L708.91 46.3104L708.272 46.9486V48.225L707.634 50.1395V52.054L708.272 53.3304L706.996 55.8831L708.91 58.4358L708.272 59.074V60.3503L706.358 63.5412L705.719 64.1794H704.443L703.805 65.4557L704.443 67.3703V71.8375L703.805 72.4757V75.0284L703.167 76.3048V78.2193L702.529 78.8575L703.167 82.6865L703.805 83.3247L703.167 85.8774L703.805 87.1538V89.0683L703.167 89.7065V91.621L705.719 93.5356Z" fill="#F0F1F5" stroke="#1A73E8" stroke-width="0.75" stroke-linecap="round" stroke-linejoin="round"/>
<path fill-rule="evenodd" clip-rule="evenodd" d="M308.801 169.479V187.986C308.801 187.986 334.243 188.276 346.964 188.101C365.298 187.85 401.968 186.71 401.968 186.71L400.692 185.433V184.157L399.415 182.242L397.501 180.966L396.225 177.775L394.948 177.137V174.584L393.672 173.308V170.755V165.65L392.396 164.373L393.672 163.735L391.758 162.459V160.544L389.843 158.63L390.482 154.801L389.205 153.524V151.61L387.929 150.972L387.291 149.057L386.015 148.419V145.866L385.376 142.675H382.824L381.548 140.761V139.484H379.633L378.995 138.846L377.081 138.208H375.166L373.252 136.294L370.061 136.932H368.785H365.594L364.318 138.208H362.404L357.299 135.017C357.299 135.017 326.021 135.121 310.382 134.853C301.134 134.695 282.637 133.741 282.637 133.741L281.361 169.479H308.801Z" fill="#F0F1F5" stroke="#1A73E8" stroke-width="0.75" stroke-linecap="round" stroke-linejoin="round"/>
<path fill-rule="evenodd" clip-rule="evenodd" d="M236.297 96.8095C251.319 97.8455 283.913 98.6412 283.913 98.6412L285.828 30.3562C285.828 30.3562 262.315 29.5428 237.361 27.7676C222.438 26.706 206.999 24.8905 195.765 23.8387C175.799 21.9694 135.867 16.9545 135.867 16.9545L133.314 32.9089L135.867 36.738L137.143 39.9289L136.505 41.2052L137.143 43.1197H136.505L139.057 46.3106L140.972 47.587L145.439 53.3306L144.801 54.6069L147.353 57.1596H148.629V59.0742H152.458L149.906 66.7323L148.629 67.3705L149.267 72.4759L147.353 73.1141V76.9431L149.906 79.4959L155.011 75.6668L156.287 78.2195L157.563 83.3249L160.116 88.4303L159.478 90.9831L161.392 92.8976H163.306L164.583 98.003L167.135 100.556L168.411 98.6412L172.878 99.9175L174.155 98.003L179.898 98.6412L180.536 99.2794H184.365L185.641 96.7266H186.917L190.108 101.194L190.746 100.556L191.384 92.2594C191.384 92.2594 220.475 95.7182 236.297 96.8095Z" fill="#F0F1F5" stroke="#1A73E8" stroke-width="0.75" stroke-linecap="round" stroke-linejoin="round"/>
<path fill-rule="evenodd" clip-rule="evenodd" d="M417.899 175.194C410.249 175.629 394.949 175.86 394.949 175.86V177.137L396.225 177.775L397.501 180.966L399.416 182.242L400.692 184.157V185.433L401.968 186.709L405.159 188.624L406.435 187.986L407.711 188.624L408.349 190.538L407.073 191.177L406.435 192.453L405.159 194.367L406.435 195.644L408.349 196.92V198.197L409.626 200.111H411.54L412.816 200.749L414.093 239.678L414.731 248.613L479.182 244.145L481.096 246.06V247.336L477.906 251.803L477.268 252.442V253.08V253.718L486.202 252.442L486.84 250.527L488.116 249.889L486.84 247.974H488.116L487.478 246.06H488.754L488.116 243.507V242.231L489.392 243.507L490.03 242.869L490.668 240.954V240.316L492.583 241.593L493.221 239.678L493.859 237.764L493.221 236.487L493.859 233.934H492.583L491.307 232.658V233.934L489.392 233.296V232.02L487.478 229.467V228.829L488.116 226.915V226.276L486.84 225V222.447L484.287 221.171L483.011 219.256H482.373L479.82 217.98L478.544 217.342L473.439 213.513V210.96L475.353 205.855V203.94L475.991 202.664L474.077 200.749H471.524L469.61 202.664L468.334 201.387L467.058 198.197V196.282L465.781 194.367L461.952 192.453L461.314 191.177L457.486 187.986L456.847 186.709L456.209 185.433L455.571 184.157L454.295 180.328L454.933 177.775L455.571 176.498L451.104 172.669C451.104 172.669 428.968 174.565 417.899 175.194Z" fill="#F0F1F5" stroke="#1A73E8" stroke-width="0.75" stroke-linecap="round" stroke-linejoin="round"/>
<path fill-rule="evenodd" clip-rule="evenodd" d="M510.45 267.758L511.089 269.035L512.365 269.673V313.707V324.556L516.194 350.083L515.556 351.998L513.003 350.721L512.365 351.359H510.45L507.898 350.083L505.345 351.998L503.431 353.274L501.517 351.998V353.274L500.878 355.188L497.688 355.827V354.55L496.412 351.359L494.497 349.445L493.859 347.53L494.497 343.063V341.787L465.781 344.339V341.787L465.143 339.234H466.419L467.057 337.958L466.419 335.405L467.696 333.49L468.972 329.023L472.801 325.832L472.163 323.28H472.801L474.077 319.451L471.524 317.536V315.621L470.248 313.707L471.524 313.069L470.886 312.431L470.248 311.154L471.524 309.24L469.61 307.963V306.049L470.886 304.772L469.61 302.858V299.667L468.334 298.391L469.61 297.114L468.334 295.838L470.248 293.285L469.61 290.094L472.163 288.818L472.801 288.18L471.524 286.904L474.077 284.351V283.074L475.991 281.798V276.054H477.906V274.14L479.82 272.864V270.949L510.45 267.758Z" fill="#F0F1F5" stroke="#1A73E8" stroke-width="0.75" stroke-linecap="round" stroke-linejoin="round"/>
<path fill-rule="evenodd" clip-rule="evenodd" d="M453.657 121.616L384.1 125.445L383.462 94.1739L382.186 92.2594L379.633 91.6212L377.719 87.7921L379.633 86.5158L380.909 84.6012L381.548 82.6867L380.909 76.3049L378.995 73.7522L378.357 71.1995L377.719 66.7323V65.4559L377.081 62.265V57.1596L376.442 53.3305L372.614 45.0342V38.0143L373.252 36.0997L371.337 30.9943L397.501 29.718V23.3362L400.053 23.9744L401.33 25.8889L402.606 29.718V32.2707L404.52 34.1852H408.349L408.987 34.8234L414.092 35.4616L414.73 37.3761L416.645 36.7379H419.197L419.835 35.4616L421.75 34.8234H425.579L426.855 35.4616H429.407V36.7379H428.131L428.769 37.3761H431.322L431.96 39.9288L433.236 40.567L433.874 41.2052L434.513 38.6524H437.065L437.703 40.567H438.979H440.894L441.532 42.4815H442.808L443.446 43.7579L446.637 42.4815L447.913 41.8433L451.742 39.2906L453.657 41.8433L456.209 41.2052L461.952 40.567L463.867 42.4815L465.143 41.8433H467.695L463.229 45.0342L456.209 47.5869L451.742 51.416L446.637 57.1596L441.532 62.265L438.341 64.1795L437.703 66.0941L437.065 67.3704H435.789L436.427 73.7522V77.5813L434.513 78.8576L431.322 80.7722L430.684 82.6867L429.407 84.6012V86.5158L431.322 87.1539L432.598 89.0685L431.96 91.6212L431.322 93.5357L431.96 94.8121L431.322 95.4502L431.96 96.7266L431.322 100.556L434.513 103.108H437.065L438.979 105.023L441.532 105.661L444.085 108.214L445.999 110.767L447.913 112.043H450.466L453.018 114.596L453.657 116.51V121.616Z" fill="#F0F1F5" stroke="#1A73E8" stroke-width="0.75" stroke-linecap="round" stroke-linejoin="round"/>
<path fill-rule="evenodd" clip-rule="evenodd" d="M516.832 145.866L544.271 142.037V143.314L562.139 140.123V138.208L564.692 135.017V130.55L565.968 127.997L567.882 127.359L567.244 124.807L569.159 123.53L568.52 122.254L569.797 121.616L571.711 123.53L572.987 115.872L570.435 112.681L568.52 106.299L566.606 101.194L565.33 98.6412H562.777L560.225 100.556H558.948L557.034 105.661H555.758L555.12 107.576H553.205L550.015 106.938L550.653 101.832L553.205 100.556L554.482 99.2794V96.7267L555.758 95.4504L557.034 94.174L556.396 87.154L555.12 84.6013L553.205 83.325L553.843 81.4104L555.758 82.0486L554.482 80.1341H553.205V77.5814H550.653L548.738 76.9432L546.824 76.305H542.995L542.357 74.3905L540.443 73.7523H538.528L534.699 72.476L532.785 73.7523L530.871 75.6669V77.5814L531.509 78.2196L534.061 78.8577L533.423 79.4959L529.594 80.7723L527.68 82.0486L528.318 85.2395V89.0686L527.042 91.6213L525.766 90.9831L525.127 89.7068V86.5159V83.9632L523.213 87.7922L522.575 89.0686H521.299L519.384 90.3449L520.022 92.2595L517.47 93.5358L518.746 95.4504V99.9176L517.47 102.47L515.555 105.023L517.47 107.576V109.49L516.194 112.043L517.47 115.234L519.384 117.787L520.022 118.425H521.299L520.661 120.339L521.937 123.53L522.575 125.445V133.741L520.661 138.208L519.384 141.399L518.746 144.59L516.832 145.866ZM498.964 89.0686L502.793 80.1341L504.707 76.9432L505.345 73.1142L506.622 75.0287V76.9432L508.536 74.3905L511.089 73.1142L511.727 75.6669L509.812 77.5814L510.45 78.2196L513.641 74.3905L514.917 72.476L517.47 71.1996L519.384 71.8378L522.575 70.5614L523.851 68.6469L528.318 68.0087L532.147 69.2851L534.061 71.1996L535.338 67.3706H538.528L543.633 68.0087L545.548 67.3706H547.462H550.015V66.0942L548.738 64.8178L547.462 66.7324H544.91L542.995 65.456L541.719 64.8178L540.443 64.1797V62.9033L541.081 60.9888L540.443 58.4361L538.528 59.7124L535.976 60.9888H534.699L534.061 60.3506L532.147 60.9888L528.956 60.3506V55.8834L526.404 56.5215L522.575 59.0742L518.108 58.4361L514.279 59.7124L510.45 62.9033L509.174 64.1797L507.26 63.5415L505.983 64.8178L504.069 62.9033L500.878 64.8178L498.964 64.1797L495.135 59.0742L491.306 58.4361L488.754 59.0742L484.925 61.627L484.287 57.1597L486.84 53.9688L490.03 50.7779L489.392 50.1398L493.221 48.8634H491.306L487.478 49.5016L483.649 52.0543L482.373 53.9688L480.458 54.607L479.182 56.5215L477.906 58.4361H475.991L473.439 60.9888L467.696 62.2651L466.419 64.1797L464.505 65.456L460.038 67.3706L462.59 68.0087L464.505 70.5614L479.82 73.7523L482.373 75.0287L485.563 74.3905L489.392 75.0287L491.306 75.6669V77.5814H493.221L495.135 78.8578L496.411 82.0486L495.135 84.6013H495.773L497.688 83.9632H498.326L497.05 87.7922L498.964 89.0686Z" fill="#F0F1F5" stroke="#1A73E8" stroke-width="0.75" stroke-linecap="round" stroke-linejoin="round"/>
<path fill-rule="evenodd" clip-rule="evenodd" d="M694.233 108.214H694.871L703.166 106.299L703.805 106.937L717.205 103.108V103.747L722.31 101.832L722.949 103.747H723.587H724.225V105.661L726.139 106.299L726.777 104.385H727.415V105.661L726.777 106.937L727.415 109.49L728.054 110.128L728.692 108.852L729.33 108.214L729.968 108.852L730.606 107.576V106.299H731.244L732.521 105.023V103.747H733.797L734.435 105.023V106.937H735.711L736.349 105.661L736.987 105.023L738.902 104.385L742.731 102.47V100.556L742.092 99.9175L741.454 98.6411L740.178 96.7266H739.54L740.178 98.0029C740.178 98.0029 741.652 99.3955 742.069 100.092C742.29 100.459 742.092 101.194 742.092 101.194L740.178 101.832L739.54 102.47L738.902 103.108H737.626H735.073L734.435 101.832V99.9175L733.159 100.556L731.244 99.9175L731.882 98.0029L729.33 95.4502L728.054 96.0884L727.415 96.7266L726.139 96.0884L725.501 95.4502V94.1739L726.139 93.5357V92.8975L727.415 92.2593L726.777 91.6212V90.3448L729.33 89.7066L729.968 88.4303L728.692 89.0684L727.415 88.4303L726.777 87.7921V86.5157H725.501L726.139 85.2394H724.863L723.587 85.8776C723.587 85.8776 723.161 86.7285 722.949 87.1539H722.31L721.034 89.7066L719.12 90.3448L705.719 93.5357L694.871 95.4502L694.233 108.214ZM733.797 110.128V111.405L735.073 110.128L737.626 109.49L735.711 108.214L735.073 109.49L733.797 110.128ZM742.092 109.49L742.731 110.128H744.007L744.645 109.49L744.007 108.214L743.369 109.49H742.092ZM726.139 107.576L725.501 108.852L726.139 110.766L726.777 110.128L726.139 107.576Z" fill="#F0F1F5" stroke="#1A73E8" stroke-width="0.75" stroke-linecap="round" stroke-linejoin="round"/>
<path fill-rule="evenodd" clip-rule="evenodd" d="M622.124 166.288L624.038 175.222L626.591 172.67L627.867 170.755L628.505 169.479H630.42L632.334 167.564V165.65L633.61 167.564H635.525L636.801 166.926L637.439 165.011H639.354L639.992 163.735L640.63 163.097L643.182 164.373L645.735 163.735L645.097 165.011H645.735L646.373 166.288L647.649 166.926V168.202H650.202L652.116 168.84L651.478 170.755L652.754 172.031H655.307L655.945 173.308H657.859L658.498 172.031L660.412 173.946L659.774 175.222V176.499L659.136 177.775V179.051L657.859 180.966V182.88H659.136V180.966L660.412 181.604L661.05 180.966L662.326 182.88L663.603 183.519L662.965 181.604L664.241 182.88L664.879 184.157L666.793 183.519L668.07 184.157L668.708 184.795L669.984 184.157L671.26 186.071L671.898 184.795L669.984 182.88H669.346L667.431 181.604L666.155 180.966L664.879 179.051V176.499L666.155 179.051L667.431 180.328L669.984 181.604V180.966L667.431 178.413V176.499L666.155 175.222V173.946V172.031L664.879 171.393L666.155 170.755L664.241 170.117L666.155 168.202L663.603 166.288L664.879 165.65L665.517 166.288V165.011L666.793 163.735L666.155 163.097L667.431 162.459L668.07 163.735V161.182L668.708 162.459L669.984 161.821L669.346 160.544L669.984 159.268L671.26 157.991L671.898 159.906L673.175 158.63V159.906L671.898 161.182L673.813 161.821L673.175 162.459L670.622 163.097L669.346 165.011V167.564L670.622 166.926H671.26L670.622 169.479L669.984 170.117H668.708V171.393L671.26 170.117L671.898 171.393L671.26 172.67H672.537L671.898 173.946L671.26 174.584L673.175 175.86L674.451 175.222L675.089 176.499L671.26 177.137L671.898 178.413L671.26 179.689L673.813 180.328L675.089 182.242V180.328H676.365L677.642 178.413V180.328V181.604H678.28L677.642 182.88H678.918L679.556 184.157L678.918 186.071L682.108 185.433L685.299 184.157V182.242L686.575 181.604L685.937 179.689L687.852 179.051V177.775L686.575 175.86L678.918 177.775L673.175 156.077L622.124 166.288Z" fill="#F0F1F5" stroke="#1A73E8" stroke-width="0.75" stroke-linecap="round" stroke-linejoin="round"/>
<path fill-rule="evenodd" clip-rule="evenodd" d="M724.225 3.55271L718.482 18.2308L719.12 22.698L717.844 24.6126V25.8889L717.206 27.8035L718.482 28.4416L717.844 29.0798V31.6325H719.12L717.844 34.1852V36.0998L715.93 38.6525L715.291 40.567L716.568 41.8434L715.93 43.1197L714.653 42.4815V43.1197V45.6724L712.739 43.7579L711.463 45.6724L721.673 75.6668V77.5813L724.225 78.8577V80.7722L726.778 82.0485L727.416 78.8577L726.778 76.3049L728.692 75.0286L729.33 74.3904L728.692 71.8377L730.607 71.1995L729.33 68.6468L731.883 65.4559H733.159V67.3705L733.797 66.0941L735.073 67.3705L735.712 66.0941L732.521 62.265L735.712 64.8178V61.6269L737.626 64.8178L738.902 60.3505L740.817 61.6269L742.093 60.3505L742.731 57.7978L742.093 53.3306L742.731 52.0542L744.007 50.1397L744.645 51.416L745.922 53.3306H747.836L748.474 50.7778L750.389 51.416L751.665 52.6924L752.941 48.8633L751.665 47.587L754.217 48.8633L756.132 47.587L758.046 43.7579H759.323L761.875 42.4815L765.066 39.9288L765.704 37.3761L763.789 38.0143V35.4616L761.237 33.5471L759.961 34.1852L757.408 32.9089L756.77 31.6325L756.132 29.718L756.77 27.8035L755.494 27.1653H752.303L751.027 26.5271L750.389 22.698L744.007 4.19089L740.817 2.91453L738.902 1L736.35 1.63818L735.073 3.55271L732.521 4.82907L729.968 6.10542L728.054 5.46724L727.416 2.91453L724.225 3.55271Z" fill="#F0F1F5" stroke="#1A73E8" stroke-width="0.75" stroke-linecap="round" stroke-linejoin="round"/>
<path fill-rule="evenodd" clip-rule="evenodd" d="M426.855 310.516L469.61 307.963L471.524 309.24L470.248 311.154L470.886 312.431L471.524 313.069L470.248 313.707L471.524 315.621V317.536L474.077 319.45L472.801 323.28H472.162L472.801 325.832L468.972 329.023L467.695 333.49L466.419 335.405L467.057 337.958L466.419 339.234H465.143L465.781 341.787V344.339L494.497 341.787V343.063L493.859 347.53L494.497 349.445L496.411 351.359L497.688 355.188V355.827H495.773L492.583 355.188L490.668 353.274H488.116L484.925 357.103L485.563 359.017L488.116 359.656L490.668 360.294L494.497 357.741H497.05L496.411 359.017L494.497 359.656L495.135 360.932H496.411L497.688 362.208L498.964 360.932L500.24 358.379L501.516 360.932L502.155 362.208H500.24L498.964 364.761L497.05 364.123L497.688 366.037L496.411 366.676L500.878 369.866L505.983 371.143L508.536 374.334L506.622 376.248L504.707 374.334L504.069 374.972L502.155 373.057L499.602 372.419L498.964 371.143L497.05 371.781L495.135 369.228L491.306 367.952H489.392L490.03 369.228L491.945 370.505V372.419V374.334L490.668 376.248L489.392 374.972V373.696L486.839 372.419L484.925 373.057L483.649 373.696L483.011 376.248L478.544 375.61H476.629L473.439 374.972V373.696L475.991 374.334L475.353 373.057L473.439 371.143L474.077 369.228L473.439 368.59L472.162 370.505L469.61 369.866L468.972 369.228L468.334 367.952L467.695 368.59L467.057 366.676L463.867 367.314V365.399H461.952L459.4 366.676L458.123 367.314L460.038 369.228L457.485 371.143H451.104L445.361 367.952L441.532 367.314L438.979 367.952L433.874 369.228H432.598L431.96 367.952L433.874 367.314V365.399V364.123V362.847L434.513 360.294L433.236 357.741L433.874 356.465V354.55L435.151 351.998L435.789 350.083V346.254L436.427 345.616L435.789 344.978V343.063L433.874 341.148V339.234L432.598 337.958V337.319L431.322 336.043V333.49L429.408 330.938L427.493 329.023L426.855 310.516Z" fill="#F0F1F5" stroke="#1A73E8" stroke-width="0.75" stroke-linecap="round" stroke-linejoin="round"/>
<path fill-rule="evenodd" clip-rule="evenodd" d="M490.03 242.869L509.812 240.955V239.678L509.174 237.764H513.003L571.711 232.02L572.988 230.744L580.007 226.915L580.645 225L583.836 223.724V222.447L585.112 221.171V219.257L589.579 216.704L594.046 210.96V210.322H592.131L588.941 208.408L586.388 205.217L585.75 203.94L583.198 201.388L583.836 198.835L583.198 196.92L581.921 195.006L579.369 194.368L578.093 191.177L575.54 193.091L574.902 194.368H572.988L572.349 195.006L571.073 193.729H568.521L567.244 195.644L565.968 195.006L564.054 193.091L560.863 193.729L558.949 193.091L558.31 191.815L557.034 189.262H555.758L554.482 187.986L553.205 189.262L551.291 187.986L549.377 189.9L550.015 191.177V192.453L551.291 193.091V195.006H549.377L546.186 196.92L544.91 196.282L542.357 196.92L542.995 200.111L541.719 202.026H540.443V204.578L539.166 205.217H537.89L537.252 207.769V210.322L535.338 211.598L533.423 210.322L531.509 209.684L530.871 208.408L529.594 210.322L528.318 212.875L527.68 214.789L526.404 214.151L524.489 212.875L522.575 213.513L521.937 214.151L520.661 216.704L519.384 215.427L516.194 214.151L514.279 215.427L513.641 214.151V216.066L513.003 216.704L512.365 215.427L511.089 216.066L509.174 215.427V217.98H507.26L506.622 219.257L505.984 221.171L507.26 222.447V223.724L502.155 225.638L501.517 227.553L502.793 229.467L503.431 230.744L502.155 231.382H501.517L497.05 229.467H495.135L493.859 230.744L492.583 232.658L493.221 233.296L492.583 233.935H493.859L493.221 236.487L493.859 237.764L492.583 241.593L490.668 240.316V240.955L490.03 242.869Z" fill="#F0F1F5" stroke="#1A73E8" stroke-width="0.75" stroke-linecap="round" stroke-linejoin="round"/>
<path fill-rule="evenodd" clip-rule="evenodd" d="M358.132 187.949C341.688 188.174 308.801 187.986 308.801 187.986L307.525 240.955C307.525 240.955 342.056 241.818 359.321 241.611C377.578 241.392 414.093 239.679 414.093 239.679L412.816 200.75L411.54 200.112H409.626L408.35 198.197V196.921L406.435 195.644L405.159 194.368L406.435 192.453L407.073 191.177L408.35 190.539L407.711 188.624L406.435 187.986L405.159 188.624L401.968 186.71C401.968 186.71 372.744 187.748 358.132 187.949Z" fill="#F0F1F5" stroke="#1A73E8" stroke-width="0.75" stroke-linecap="round" stroke-linejoin="round"/>
<path fill-rule="evenodd" clip-rule="evenodd" d="M394.949 175.861C394.949 175.861 413.237 175.46 422.381 174.94C431.955 174.396 451.105 172.67 451.105 172.67L455.571 176.499L456.21 175.861L455.571 173.308L459.4 170.755V168.202L461.953 165.65L461.315 163.735L458.762 161.182L460.038 157.353L465.143 156.077L468.972 153.524V150.972L470.887 149.057L470.249 143.952L466.42 142.675V140.761L463.229 138.208L461.953 135.017H458.124L456.21 131.188L455.571 126.721L456.848 124.806L454.933 123.53L454.295 121.615L382.186 125.445V126.721L383.462 127.997L382.824 129.912L384.101 131.188L383.462 136.294L382.186 138.208L384.101 142.675H385.377L386.015 145.866V148.419L387.291 149.057L387.929 150.972L389.206 151.61V153.524L390.482 154.801L389.844 158.63L391.758 160.544V162.459L393.673 163.735L392.396 164.373L393.673 165.65V173.308L394.949 174.584V175.861Z" fill="#F0F1F5" stroke="#1A73E8" stroke-width="0.75" stroke-linecap="round" stroke-linejoin="round"/>
<path fill-rule="evenodd" clip-rule="evenodd" d="M507.26 147.781L509.175 149.057H511.089L516.832 145.866L544.272 142.037V143.313L550.015 189.262L549.377 189.9L550.015 191.177V192.453L551.292 193.091V195.006H549.377L546.186 196.92L544.91 196.282L542.358 196.92L542.996 200.111L541.72 202.026H540.443V204.578L539.167 205.217H537.891L537.253 207.769V210.322L535.338 211.598L533.424 210.322L531.509 209.684L530.871 208.407L529.595 210.322L528.957 211.598L528.319 212.875L527.681 214.789L526.404 214.151L524.49 212.875L522.576 213.513L521.937 214.151L520.661 216.704L519.385 215.427L516.194 214.151L514.28 215.427L513.642 214.151V216.066L513.004 216.704L512.365 215.427L511.089 216.066L509.175 215.427V216.704V217.98H507.26L506.622 216.066L507.26 215.427V212.875L508.537 211.598L507.26 210.322L507.899 209.046L509.175 208.407L510.451 205.855L511.727 204.578V202.664L513.004 200.749V199.473L512.365 197.558V196.282L511.089 194.368L509.813 193.091L511.089 192.453L510.451 190.538L511.727 189.262L507.26 147.781Z" fill="#F0F1F5" stroke="#1A73E8" stroke-width="0.75" stroke-linecap="round" stroke-linejoin="round"/>
<path fill-rule="evenodd" clip-rule="evenodd" d="M501.517 134.379L463.229 138.208L466.419 140.761V142.676L470.248 143.952L470.886 149.057L468.972 150.972V153.525L465.143 156.077L460.038 157.354L458.762 161.183L461.314 163.735L461.952 165.65L459.4 168.203V170.755L455.571 173.308L456.209 175.861L455.571 176.499L454.933 177.775L454.295 180.328L455.571 184.157L457.485 187.986L461.314 191.177L461.952 192.453L465.781 194.368L467.057 196.282V198.197L468.334 201.388L469.61 202.664L471.524 200.75H474.077L475.991 202.664L475.353 203.302V205.855L473.439 210.961V213.513L478.544 217.342L482.373 219.257H483.011L484.287 221.171L486.84 222.448V225L488.116 226.277V226.915L487.478 228.83V229.468L489.392 232.02V233.297L491.306 233.935V232.659L492.583 233.935L493.221 233.297L492.583 232.659L493.859 230.744L495.135 229.468H497.05L501.517 231.382H502.155L503.431 230.744L502.793 229.468L501.517 227.553L502.155 225.639L504.069 225L507.26 223.724V222.448L505.984 221.171L506.622 219.257L507.26 217.981L506.622 216.066L507.26 215.428V212.875L508.536 211.599L507.26 210.322L507.898 209.046L509.174 208.408L510.45 205.855L511.727 204.579V202.664L513.003 200.75V199.473L512.365 197.559V196.282L511.089 194.368L509.812 193.092L511.089 192.453L510.45 190.539L511.727 189.263L507.26 147.781L505.345 145.866L504.707 143.952V142.037L502.793 140.761L502.155 138.847L501.517 138.208V134.379Z" fill="#F0F1F5" stroke="#1A73E8" stroke-width="0.75" stroke-linecap="round" stroke-linejoin="round"/>
<path fill-rule="evenodd" clip-rule="evenodd" d="M186.279 145.228L190.108 101.194L186.917 96.7266H185.641L184.365 99.2794H180.536L179.898 98.6412L174.155 98.003L172.878 99.9175L168.411 98.6412L167.135 100.556L164.583 98.003L163.306 92.8976H161.392L159.478 90.983L160.116 88.4303L157.563 83.3249L156.287 78.2195L155.011 75.6668L149.906 79.4958L147.353 76.9431V73.1141L149.268 72.4759L148.629 67.3705L149.906 66.7323L152.458 59.0742H148.629V57.1596H147.353L144.801 54.6069L145.439 53.3306L140.972 47.587L139.057 46.3106L136.505 43.1197H137.143L136.505 41.2052L137.143 39.9288L135.867 36.738L133.314 32.9089L135.867 16.9544L123.742 15.0399L116.723 59.0742L117.999 61.6269V62.9032L117.361 63.5414L117.999 67.3705L121.828 70.5614L122.466 73.7522L119.275 77.5813L118.637 78.8577L116.085 82.6867L115.446 84.6013L112.894 87.154L109.703 90.983L109.065 94.8121L111.618 95.4503L112.894 96.7266L111.618 98.003V99.9175L110.341 102.47L105.236 134.379L145.439 140.123L186.279 145.228Z" fill="#F0F1F5" stroke="#1A73E8" stroke-width="0.75" stroke-linecap="round" stroke-linejoin="round"/>
<path fill-rule="evenodd" clip-rule="evenodd" d="M585.112 258.185L548.1 263.291L559.586 299.029L562.139 304.772L564.053 307.325V309.878L565.968 310.516L564.053 312.43V315.621L562.777 316.898V320.089L565.329 323.279L564.691 329.661L566.606 331.576L567.244 333.49L568.52 335.405L569.158 337.957L606.808 335.405L610.637 334.767V336.043L611.913 337.957H613.828L614.466 334.128L613.189 333.49V330.938L614.466 329.661L617.656 330.299H621.485L620.209 328.385L621.485 325.832H620.209L620.847 324.556L620.209 323.279V322.641V320.727H621.485V322.641L622.761 320.089L619.571 319.45V318.174L622.761 318.812L622.123 317.536L624.038 315.621L622.123 316.259L620.847 314.983L623.4 314.345L622.123 313.069L622.761 311.792L621.485 311.154H624.038L624.676 309.878L622.761 309.239L623.4 307.963L625.952 308.601V307.325L627.228 306.049L625.314 305.41L624.038 304.772L623.4 305.41L622.123 303.496V300.943L620.209 298.39L619.571 297.114H617.656L617.018 295.838L616.38 293.285L615.104 291.371V290.094L611.913 288.18H609.999V286.903L608.723 286.265V284.989L606.808 284.351V283.074L604.894 281.16H602.979L601.065 277.969L597.874 276.692L597.236 275.416H595.96L595.322 273.502L593.407 272.225L592.769 271.587L592.131 269.672L590.217 268.396V266.482L587.664 267.12L585.75 265.843L585.112 265.205L583.197 264.567L581.921 263.929L583.197 261.376L583.835 260.1L585.112 258.185Z" fill="#F0F1F5" stroke="#1A73E8" stroke-width="0.75" stroke-linecap="round" stroke-linejoin="round"/>
<path fill-rule="evenodd" clip-rule="evenodd" d="M567.245 333.49L527.68 337.958L527.042 341.149L528.957 343.063L530.871 343.701V346.254L531.509 347.53H532.785L531.509 350.083L532.147 350.721L535.338 346.892L534.7 344.978L536.614 346.254L537.252 344.978H538.529L537.891 346.254L539.805 346.892L538.529 347.53L544.272 346.892L545.548 344.978H546.824L550.015 344.339L551.929 346.254L548.739 346.892L553.844 348.169L557.673 350.083L555.758 348.169L557.673 346.892L558.311 348.169L560.225 346.254L560.863 347.53L558.949 349.445L560.225 350.083H562.14L563.416 351.359L562.14 351.998L560.225 351.359L563.416 353.274L565.33 355.188V357.103H567.245L569.797 355.827L572.35 353.912L572.988 355.188L577.455 351.359H580.007L577.455 350.083L580.007 348.169L581.922 347.53H585.112L587.665 348.807H589.579L592.132 351.359L592.77 352.636L595.322 353.274L595.961 355.827L597.237 357.103L599.151 357.741L600.428 359.656L602.342 360.932H606.171L607.447 364.123L609.361 365.399V367.952L610 369.228V375.61L608.723 378.801L610 380.077L609.361 384.545L611.914 386.459L612.552 383.906L610.638 382.63L611.276 380.716L613.828 381.992V383.906L615.105 381.992L615.743 383.268L616.381 384.545L613.828 388.374L613.19 390.926L615.105 392.841L615.743 394.755L617.657 397.308L618.933 399.223L620.848 401.137H622.762L620.21 398.585H622.124L624.677 397.946L625.315 398.585L624.038 399.223L624.677 403.69L625.315 405.604L626.591 404.966V403.69L629.144 401.775V403.052L627.867 404.328L626.591 406.243L627.867 406.881L628.505 406.243L629.782 408.795L630.42 411.986L632.334 414.539L637.439 415.815L639.354 417.092V418.368L639.992 419.006L641.906 420.921L643.182 423.473L646.373 424.112L647.649 425.388L646.373 426.664L643.182 424.75V426.664L644.459 427.941L647.649 427.303L648.287 426.026L650.84 426.664L652.754 424.112H654.669L656.583 420.921L655.307 419.644L656.583 415.177L657.221 411.348V408.157V404.328L656.583 403.69V398.585L655.945 394.755L654.669 393.479V392.203L652.116 389.65H650.84L650.202 388.374L652.116 389.012L650.84 386.459L650.202 385.821L647.649 381.354L645.097 377.525L641.906 372.419L638.715 367.952L637.439 363.485L638.715 362.847L639.354 365.399H641.268L635.525 358.379L629.782 350.721L625.953 341.787L625.315 340.51L624.038 337.958L623.4 334.767L621.486 333.49V331.576H622.762V330.3H617.657L614.466 329.661L613.19 330.938V333.49L614.466 334.129L613.828 337.958H611.914L610.638 336.043V334.767L606.809 335.405L569.159 337.958L568.521 335.405L567.245 333.49Z" fill="#F0F1F5" stroke="#1A73E8" stroke-width="0.75" stroke-linecap="round" stroke-linejoin="round"/>
<path fill-rule="evenodd" clip-rule="evenodd" d="M678.918 177.775L686.575 175.861L687.852 175.223V174.584L687.213 173.308L685.299 173.946L685.937 172.67V171.394L687.213 170.755L685.937 170.117L684.661 169.479L682.746 168.203V166.926L680.194 165.65V163.097L676.365 159.906V157.992L675.727 157.354V156.077L677.003 154.801L677.641 152.886H675.089L673.813 154.163L673.174 156.077L678.918 177.775Z" fill="#F0F1F5" stroke="#1A73E8" stroke-width="0.75" stroke-linecap="round" stroke-linejoin="round"/>
<path fill-rule="evenodd" clip-rule="evenodd" d="M264.131 168.841C248.618 168.126 211.804 165.012 211.804 165.012L206.061 235.849C206.061 235.849 230.326 237.933 244.692 238.656C264.147 239.635 307.524 240.955 307.524 240.955L308.801 169.479C308.801 169.479 280.95 169.615 264.131 168.841Z" fill="#F0F1F5" stroke="#1A73E8" stroke-width="0.75" stroke-linecap="round" stroke-linejoin="round"/>
<path fill-rule="evenodd" clip-rule="evenodd" d="M694.871 108.214L696.785 120.977L698.062 122.254L695.509 125.445L696.785 126.083H698.7L701.891 122.254L703.805 121.616L705.081 119.701H706.357L709.548 118.425L712.739 117.786L712.101 116.51L714.015 117.148L715.291 116.51L717.206 115.872L718.482 115.234H719.758V112.681L717.206 103.108L703.805 106.937L703.167 106.299L694.871 108.214Z" fill="#F0F1F5" stroke="#1A73E8" stroke-width="0.75" stroke-linecap="round" stroke-linejoin="round"/>
<path fill-rule="evenodd" clip-rule="evenodd" d="M65.0338 127.997L8.87811 116.51V118.425L7.60184 120.339L8.87811 121.616V127.359L6.32557 132.465V133.741L5.68744 136.294L6.32557 136.932L4.41118 137.57L3.77304 138.846L2.49678 139.485L0.582382 142.676V145.866L3.13491 149.695L3.77304 150.972L5.68744 154.801V160.545L3.77304 163.735L4.41118 165.65L5.04931 170.117L3.77304 170.755L8.23997 178.413L10.7925 180.966V183.519L12.0688 185.433L13.345 187.986V189.263L11.4306 186.71V187.986L13.9832 191.815H14.6213L16.5357 193.73L17.812 188.624L19.7264 187.986L22.2789 190.539L23.5552 189.901L24.8314 189.263L25.4696 190.539L26.7458 191.177H28.6602L30.5746 191.815L32.489 193.73H31.8509L29.9365 192.453L28.6602 193.092L26.7458 192.453L23.5552 191.177L22.2789 191.815L21.0026 190.539L19.0882 191.815V192.453L19.7264 193.73V195.006L21.0026 196.282V198.835V200.75L22.2789 201.388L21.6408 202.026L19.7264 200.75L17.812 198.197V196.921V195.006H16.5357L15.8976 196.282L16.5357 197.559L15.8976 199.473L16.5357 202.026L15.8976 204.579L17.812 208.408L19.7264 210.322L22.2789 210.961L23.5552 213.513L22.917 216.066L21.0026 217.342H20.3645V222.448L21.0026 223.724L22.917 225.639L23.5552 228.191L24.8314 228.83V231.382L26.1077 233.297V235.211L28.6602 236.488L29.2983 239.04L31.8509 240.317V242.231L30.5746 243.508L31.2127 244.784L33.7653 246.06V247.975L33.1271 250.528V253.08V254.995L31.8509 256.271L33.7653 256.909L34.4034 258.824H38.8703L39.5085 260.1H41.4229L42.6991 261.377L44.6135 262.015L46.5279 261.377L50.3567 264.567L51.633 267.758L56.0999 270.311L57.3762 270.949H61.205L63.1194 273.502L62.4812 276.693L63.7575 277.331L65.0338 276.693L66.9482 277.331L69.5007 280.522L73.3295 284.989L75.2439 286.904L76.5201 290.733L77.1583 293.924L76.5201 296.476L77.1583 297.753L78.4345 299.029V300.944L114.17 303.496L114.808 302.858L116.722 303.496H117.361L117.999 302.22L118.637 300.944V298.391L116.084 297.753L115.446 296.476L116.084 294.562V290.733H117.999L119.275 288.18L119.913 285.627L120.551 283.075V281.798L121.828 280.522L122.466 279.246L125.018 277.969L126.933 276.055L123.742 272.864L123.104 269.035L121.828 266.482L121.189 265.206V263.291L55.4618 179.69L65.0338 127.997Z" fill="#F0F1F5" stroke="#1A73E8" stroke-width="0.75" stroke-linecap="round" stroke-linejoin="round"/>
<path fill-rule="evenodd" clip-rule="evenodd" d="M419.198 299.667L417.921 267.758L414.731 249.251V248.613L479.182 244.146L481.096 246.06V247.336L477.906 251.804L477.268 252.442V253.718L486.201 252.442L487.478 253.08L488.116 253.718H486.201V254.995L486.84 255.633L483.649 257.547L484.287 260.1V261.376H483.011L482.373 263.929L481.735 265.844L483.011 268.396H481.096L479.82 270.949V272.863L477.906 274.14V276.054H475.991V281.798L474.077 283.074V284.351L471.524 286.903L472.801 288.18L472.163 288.818L469.61 290.094L470.248 293.285L468.334 295.838L469.61 297.114L468.334 298.391L469.61 299.667V302.858L470.886 304.772L469.61 306.049V307.963L426.217 310.516V300.943L425.579 300.305H422.388L421.75 300.943L420.474 300.305L419.198 299.667Z" fill="#F0F1F5" stroke="#1A73E8" stroke-width="0.75" stroke-linecap="round" stroke-linejoin="round"/>
<path fill-rule="evenodd" clip-rule="evenodd" d="M160.782 231.636C175.875 233.253 206.061 235.849 206.061 235.849L197.765 337.319L167.135 334.767L112.256 307.325L112.894 305.411L114.17 303.496L114.808 302.858L116.722 303.496H117.361L118.637 300.943V298.391L116.084 297.752L115.446 296.476L116.084 294.562V290.732H117.999L119.275 288.18L120.551 283.074V281.798L121.828 280.522L122.466 279.245L125.018 277.969L126.933 276.054L123.742 272.863L123.104 269.034L121.189 265.205V260.738L122.466 260.1V257.547L121.828 254.356L122.466 252.442L121.828 249.251L122.466 247.975L121.828 246.06L122.466 243.507L125.018 242.231L126.933 243.507L128.209 242.869L128.847 245.422H130.761L132.676 241.593L134.59 228.191C134.59 228.191 152.051 230.7 160.782 231.636Z" fill="#F0F1F5" stroke="#1A73E8" stroke-width="0.75" stroke-linecap="round" stroke-linejoin="round"/>
<path fill-rule="evenodd" clip-rule="evenodd" d="M510.45 267.758L511.088 269.035L512.365 269.673V324.556L516.194 350.083H518.746L520.022 351.36H520.66V347.53L521.299 343.701L523.851 345.616L523.213 348.169L524.489 349.445L527.042 351.998L528.956 351.36L528.318 350.083H529.594L531.509 347.53L530.871 346.254V343.701L528.956 343.063L527.042 341.149L527.68 337.958L567.244 333.491L566.606 331.576L564.692 329.661L565.33 323.28L562.777 320.089V316.898L564.053 315.622V312.431L565.968 310.516L564.053 309.878V307.325L562.139 304.773L559.587 299.029L548.1 263.291L510.45 267.758Z" fill="#F0F1F5" stroke="#1A73E8" stroke-width="0.75" stroke-linecap="round" stroke-linejoin="round"/>
</svg>
